<?xml version="1.0" encoding="UTF-8"?>
<svg version="1.1" xmlns="http://www.w3.org/2000/svg" width="110" height="110">
<path d="M0 0 C36.3 0 72.6 0 110 0 C110 36.3 110 72.6 110 110 C73.7 110 37.4 110 0 110 C0 73.7 0 37.4 0 0 Z " fill="#000000" transform="translate(0,0)"/>
<path d="M0 0 C4.40147657 0.50302589 6.75395419 2.02445801 10 5 C10.33 5.66 10.66 6.32 11 7 C16.94 7.33 22.88 7.66 29 8 C27.99733949 15.01862355 27.26427584 17.69074765 22 22 C19.60809223 23.08114231 17.61084746 23.53004746 15 24 C15 27.63 15 31.26 15 35 C15.825 35.061875 16.65 35.12375 17.5 35.1875 C24.41352882 36.79242633 29.12780304 40.43843632 33.08984375 46.25390625 C35.87604815 51.59911383 36.04544306 58.55302489 34.31640625 64.25390625 C31.54975565 70.30380197 27.47551304 73.34965797 22 77 C19.95703125 77.1953125 19.95703125 77.1953125 17.8125 77.125 C16.554375 77.08375 15.29625 77.0425 14 77 C14 79.97 14 82.94 14 86 C9.59852343 85.49697411 7.24604581 83.97554199 4 81 C3.505 80.01 3.505 80.01 3 79 C0.94399931 78.7941058 -1.12210672 78.68567822 -3.1875 78.625 C-10.11956246 78.18510982 -13.41151886 76.58848114 -18.3125 71.6875 C-20 69 -20 69 -21 62 C-14.07 62 -7.14 62 0 62 C0 58.37 0 54.74 0 51 C-1.505625 50.79375 -3.01125 50.5875 -4.5625 50.375 C-10.92611507 49.07887472 -14.45785997 46.37946211 -18.31640625 41.25 C-21.71809433 35.56076558 -21.99937719 29.45684566 -21 23 C-18.47842354 16.48682167 -13.59623791 11.84197552 -7.4375 8.6875 C-4.84471518 7.95620172 -2.68065884 7.84681949 0 8 C0 5.36 0 2.72 0 0 Z " fill="#1AEBF3" transform="translate(48,12)"/>
<path d="M0 0 C4.40147657 0.50302589 6.75395419 2.02445801 10 5 C10.33 5.66 10.66 6.32 11 7 C16.94 7.33 22.88 7.66 29 8 C27.99733949 15.01862355 27.26427584 17.69074765 22 22 C19.60809223 23.08114231 17.61084746 23.53004746 15 24 C15 27.96 15 31.92 15 36 C9.84828377 36.09038099 5.08086796 35.84681133 0 35 C0 31.37 0 27.74 0 24 C-4.10695927 25.49701776 -4.10695927 25.49701776 -4.9375 28.375 C-5.01450945 31.60939697 -4.15650737 32.67097204 -2 35 C-7.12991866 34.56526113 -10.79792044 34.21335496 -15 31 C-18.12333705 26.31499443 -17.95367294 21.46916981 -17 16 C-14.21289254 11.8897994 -9.77005473 9.25527756 -5 8 C-2.1875 7.875 -2.1875 7.875 0 8 C0 5.36 0 2.72 0 0 Z " fill="#1AF0F8" transform="translate(48,12)"/>
<path d="M0 0 C3.1875 -0.3125 3.1875 -0.3125 7 0 C10.51376492 2.8890956 13.66109811 5.89489786 14.40625 10.5234375 C14.65432598 18.06908196 14.65432598 18.06908196 12.76171875 20.76171875 C11.1875 22.0625 11.1875 22.0625 8 24 C7.01 24.66 6.02 25.32 5 26 C2.95703125 26.1953125 2.95703125 26.1953125 0.8125 26.125 C-0.445625 26.08375 -1.70375 26.0425 -3 26 C-3 28.97 -3 31.94 -3 35 C-7.40147657 34.49697411 -9.75395419 32.97554199 -13 30 C-13.33 29.34 -13.66 28.68 -14 28 C-16.05600069 27.7941058 -18.12210672 27.68567822 -20.1875 27.625 C-27.11956246 27.18510982 -30.41151886 25.58848114 -35.3125 20.6875 C-37.35042991 17.44190793 -37.55368692 14.76935698 -38 11 C-36.88963379 10.97494385 -35.77926758 10.9498877 -34.63525391 10.92407227 C-30.52396681 10.83005085 -26.41285077 10.72981743 -22.30175781 10.62768555 C-20.52087397 10.5843167 -18.73994802 10.54264306 -16.95898438 10.50268555 C-14.40221452 10.4450301 -11.84565702 10.3813223 -9.2890625 10.31640625 C-8.49005524 10.29969376 -7.69104797 10.28298126 -6.86782837 10.26576233 C-2.80193632 10.24607009 -2.80193632 10.24607009 1 9 C1.26932521 4.34947128 1.26932521 4.34947128 0 0 Z " fill="#DFDBDB" transform="translate(65,63)"/>
<path d="M0 0 C0 5.28 0 10.56 0 16 C-1.98 16.99 -1.98 16.99 -4 18 C-5.08805146 20.3566226 -5.08805146 20.3566226 -5 23 C-3.66846734 25.30504044 -3.66846734 25.30504044 -2 27 C-7.12991866 26.56526113 -10.79792044 26.21335496 -15 23 C-18.12333705 18.31499443 -17.95367294 13.46916981 -17 8 C-12.97661185 2.06663264 -6.89314956 0 0 0 Z " fill="#E8E4E5" transform="translate(48,20)"/>
<path d="M0 0 C6.13954038 2.93565401 11.44249955 5.8138788 16 11 C17.90018996 16.79992622 17.81469887 23.0311444 15.5 28.625 C14.7575 29.800625 14.7575 29.800625 14 31 C13.67 31 13.34 31 13 31 C12.96261719 30.40832031 12.92523438 29.81664063 12.88671875 29.20703125 C12.48947172 24.43227778 12.05756639 20.88075734 9 17 C5.88082461 14.92054974 5.41258857 14.79214424 1.9375 15 C0.638125 15 -0.66125 15 -2 15 C-2.66 14.34 -3.32 13.68 -4 13 C-3.01 13 -2.02 13 -1 13 C-1.01160156 12.39671875 -1.02320312 11.7934375 -1.03515625 11.171875 C-1.04869141 9.97304688 -1.04869141 9.97304688 -1.0625 8.75 C-1.07410156 7.96109375 -1.08570312 7.1721875 -1.09765625 6.359375 C-1.00385306 4.09308998 -0.63241063 2.1711105 0 0 Z " fill="#61F5FA" transform="translate(66,49)"/>
<path d="M0 0 C5.94 0 11.88 0 18 0 C17.01527023 6.89310838 16.32287541 9.84297562 11 14 C7.125 14.9375 7.125 14.9375 4 15 C3.79503906 14.16855469 3.59007812 13.33710937 3.37890625 12.48046875 C3.10949219 11.39378906 2.84007812 10.30710937 2.5625 9.1875 C2.29566406 8.10855469 2.02882812 7.02960937 1.75390625 5.91796875 C1.23922588 3.9259157 0.65062825 1.95188476 0 0 Z " fill="#E5DFDF" transform="translate(59,20)"/>
<path d="M0 0 C1.4370809 -0.05422947 2.87475462 -0.09289723 4.3125 -0.125 C5.11300781 -0.14820313 5.91351563 -0.17140625 6.73828125 -0.1953125 C9 0 9 0 12 2 C12.375 5.5 12.375 5.5 12 9 C8.20836973 11.52775351 5.19125969 11.22443035 0.8125 11.125 C0.06291016 11.11597656 -0.68667969 11.10695313 -1.45898438 11.09765625 C-3.30612654 11.07412578 -5.15310412 11.03825561 -7 11 C-7 8.69 -7 6.38 -7 4 C-3.535 3.505 -3.535 3.505 0 3 C0 2.01 0 1.02 0 0 Z " fill="#35F6FD" transform="translate(55,63)"/>
<path d="M0 0 C0.33 0 0.66 0 1 0 C1 1.65 1 3.3 1 5 C1.66 5.33 2.32 5.66 3 6 C2.34 6 1.68 6 1 6 C1 9.96 1 13.92 1 18 C-4.15171623 18.09038099 -8.91913204 17.84681133 -14 17 C-14.2339498 14.14581246 -14.41921004 11.79657225 -14 9 C-11.66863973 6.59343456 -9.97827183 6.07034396 -6.6640625 5.83203125 C-4.43261568 5.81443309 -2.22722652 5.86898668 0 6 C0 4.02 0 2.04 0 0 Z " fill="#5EF0F6" transform="translate(62,30)"/>
<path d="M0 0 C1.29640378 0.59393382 2.58698839 1.20057989 3.875 1.8125 C4.59429687 2.14894531 5.31359375 2.48539063 6.0546875 2.83203125 C8 4 8 4 10 7 C8.8553125 7.6496875 8.8553125 7.6496875 7.6875 8.3125 C5.03619492 9.82665516 5.03619492 9.82665516 3.375 11.6875 C2 13 2 13 -1 13 C-1.0272415 11.58344207 -1.04650467 10.16672955 -1.0625 8.75 C-1.07410156 7.96109375 -1.08570312 7.1721875 -1.09765625 6.359375 C-1.00385306 4.09308998 -0.63241063 2.1711105 0 0 Z " fill="#40F7FE" transform="translate(66,49)"/>
<path d="M0 0 C3.63 0 7.26 0 11 0 C11 2.64 11 5.28 11 8 C6.60357652 7.4975516 4.2051018 6.02704059 1 3 C0.67 2.01 0.34 1.02 0 0 Z " fill="#42EEF4" transform="translate(51,90)"/>
<path d="M0 0 C0 3.63 0 7.26 0 11 C-2.475 10.01 -2.475 10.01 -5 9 C-6 6.625 -6 6.625 -6 4 C-3.83783784 0 -3.83783784 0 0 0 Z " fill="#141717" transform="translate(48,36)"/>
<path d="M0 0 C2.475 0.99 2.475 0.99 5 2 C5 4.31 5 6.62 5 9 C3.35 9.66 1.7 10.32 0 11 C0 7.37 0 3.74 0 0 Z " fill="#081818" transform="translate(62,63)"/>
<path d="M0 0 C2.31 0 4.62 0 7 0 C6.125 4.75 6.125 4.75 5 7 C3.35 7 1.7 7 0 7 C0 4.69 0 2.38 0 0 Z " fill="#42F5FC" transform="translate(48,67)"/>
<path d="M0 0 C0 2.97 0 5.94 0 9 C-4 8 -4 8 -5.25 6.125 C-6 4 -6 4 -6 1 C-3.92446352 0.4465236 -2.15634036 0 0 0 Z " fill="#0EE8F0" transform="translate(62,65)"/>
<path d="M0 0 C5.5770903 0.41828177 9.65514618 2.61414545 14 6 C14.99 7.485 14.99 7.485 16 9 C12.36804504 9 11.25286089 8.04546845 8.3125 6 C7.50425781 5.443125 6.69601563 4.88625 5.86328125 4.3125 C5.24839844 3.879375 4.63351563 3.44625 4 3 C3.01 4.485 3.01 4.485 2 6 C2 4.35 2 2.7 2 1 C1.34 0.67 0.68 0.34 0 0 Z " fill="#34DEE4" transform="translate(63,47)"/>
<path d="M0 0 C0.66 0 1.32 0 2 0 C2 2.64 2 5.28 2 8 C1.34 7.67 0.68 7.34 0 7 C-2.04946506 6.97011197 -4.07774318 7.06607276 -6.125 7.16015625 C-8 7 -8 7 -10 5 C-8.906875 4.731875 -7.81375 4.46375 -6.6875 4.1875 C-3.26833673 3.08641352 -2.22408019 2.57525074 0 0 Z " fill="#7CF1F5" transform="translate(72,57)"/>
<path d="M0 0 C0.99 0 1.98 0 3 0 C3 1.98 3 3.96 3 6 C2.34 6 1.68 6 1 6 C0.67 7.32 0.34 8.64 0 10 C0 6.7 0 3.4 0 0 Z " fill="#57F3F8" transform="translate(48,12)"/>
<path d="M0 0 C0.33 0 0.66 0 1 0 C1.3690205 10.55808656 1.3690205 10.55808656 -1 15 C-1.33 15 -1.66 15 -2 15 C-2 12.69 -2 10.38 -2 8 C-1.34 8 -0.68 8 0 8 C0 5.36 0 2.72 0 0 Z " fill="#43D7DB" transform="translate(82,64)"/>
</svg>
