
<svg xmlns="http://www.w3.org/2000/svg" width="256" height="256" viewBox="0 0 256 256">
  <defs>
    <linearGradient id="g" x1="0" y1="0" x2="1" y2="1">
      <stop offset="0" stop-color="#00e5f1"/>
      <stop offset="1" stop-color="#b8fbff"/>
    </linearGradient>
  </defs>
  <rect width="256" height="256" rx="42" fill="#000"/>
  <g transform="translate(28 20)">
    <path d="M100 0v216" stroke="url(#g)" stroke-width="22" stroke-linecap="round"/>
    <path d="M20 62c0-22 18-40 40-40h120c-4 24-24 40-48 40H20z" fill="#e9eef0" opacity="0.9"/>
    <path d="M20 174c0 22 18 40 40 40h120c-4-24-24-40-48-40H20z" fill="#e9eef0" opacity="0.9"/>
    <path d="M44 104c0-22 18-40 40-40h68c-5 24-23 40-45 40H44z" fill="url(#g)" opacity=".85"/>
    <path d="M44 132c0 22 18 40 40 40h68c-5-24-23-40-45-40H44z" fill="url(#g)" opacity=".85"/>
  </g>
</svg>
